<svg width="298" height="298" viewBox="0 0 298 298" fill="none" xmlns="http://www.w3.org/2000/svg">
<path d="M20 140H0V74H168V152L194 224H107L94 187V224H0V158H20V204H74V148H100L120 205H168L149 152V94L20 93V140Z" fill="white"/>
<path d="M140 3.28251e-06H74V57H94V20H140V3.28251e-06Z" fill="white"/>
<path d="M140 278H94L94 241H74L74 298H140V278Z" fill="white"/>
<path d="M298 74H224V94H278V140H298V74Z" fill="white"/>
<path d="M224 224L224 298H158V278H204L204 204H278V158H298L298 224H224Z" fill="white"/>
<path d="M224 94H204V20L158 20V0L224 4.78573e-08L224 94Z" fill="white"/>
</svg>
